<svg xmlns="http://www.w3.org/2000/svg" xmlns:xlink="http://www.w3.org/1999/xlink" width="500" zoomAndPan="magnify" viewBox="0 0 375 374.999991" height="500" preserveAspectRatio="xMidYMid meet" version="1.0"><defs><filter x="0%" y="0%" width="100%" height="100%" id="77262f77c5"><feColorMatrix values="0 0 0 0 1 0 0 0 0 1 0 0 0 0 1 0 0 0 1 0" color-interpolation-filters="sRGB"/></filter><mask id="570b6909fe"><g filter="url(#77262f77c5)"><rect x="-37.5" width="450" fill="#000000" y="-37.499999" height="449.999989" fill-opacity="0.05"/></g></mask><clipPath id="39ca86a328"><path d="M 0.238281 0.320312 L 280.320312 0.320312 L 280.320312 241 L 0.238281 241 Z M 0.238281 0.320312 " clip-rule="nonzero"/></clipPath><clipPath id="72d19731a5"><rect x="0" width="281" y="0" height="242"/></clipPath></defs><path fill="#ffffff" d="M 24.699219 318.734375 C 24.699219 318.734375 317.789062 318.734375 317.789062 318.734375 C 322.929688 318.734375 327.09375 314.566406 327.09375 309.429688 C 327.09375 309.429688 327.09375 47.402344 327.09375 47.402344 C 327.09375 42.265625 322.929688 38.101562 317.789062 38.101562 C 317.789062 38.101562 24.699219 38.101562 24.699219 38.101562 C 19.558594 38.101562 15.394531 42.265625 15.394531 47.402344 C 15.394531 47.402344 15.394531 309.429688 15.394531 309.429688 C 15.394531 314.566406 19.558594 318.734375 24.699219 318.734375 Z M 24.699219 318.734375 " fill-opacity="1" fill-rule="nonzero"/><path fill="#31b099" d="M 305.644531 53.871094 C 305.644531 56.601562 307.859375 58.816406 310.59375 58.816406 C 313.324219 58.816406 315.539062 56.601562 315.539062 53.871094 C 315.539062 51.136719 313.324219 48.921875 310.59375 48.921875 C 307.859375 48.921875 305.644531 51.136719 305.644531 53.871094 Z M 305.644531 53.871094 " fill-opacity="1" fill-rule="nonzero"/><path fill="#31b099" d="M 287.457031 53.871094 C 287.457031 56.601562 289.671875 58.816406 292.40625 58.816406 C 295.136719 58.816406 297.351562 56.601562 297.351562 53.871094 C 297.351562 51.136719 295.136719 48.921875 292.40625 48.921875 C 289.671875 48.921875 287.457031 51.136719 287.457031 53.871094 Z M 287.457031 53.871094 " fill-opacity="1" fill-rule="nonzero"/><path fill="#31b099" d="M 269.269531 53.871094 C 269.269531 56.601562 271.484375 58.816406 274.214844 58.816406 C 276.949219 58.816406 279.160156 56.601562 279.160156 53.871094 C 279.160156 51.136719 276.949219 48.921875 274.214844 48.921875 C 271.484375 48.921875 269.269531 51.136719 269.269531 53.871094 Z M 269.269531 53.871094 " fill-opacity="1" fill-rule="nonzero"/><g mask="url(#570b6909fe)"><g transform="matrix(1, 0, 0, 1, 30, 64)"><g clip-path="url(#72d19731a5)"><g clip-path="url(#39ca86a328)"><path fill="#0d222a" d="M 0.410156 240.753906 C 0.410156 240.753906 280.148438 240.753906 280.148438 240.753906 C 280.148438 240.753906 280.148438 0.765625 280.148438 0.765625 C 280.148438 0.765625 0.410156 0.765625 0.410156 0.765625 C 0.410156 0.765625 0.410156 240.753906 0.410156 240.753906 Z M 0.410156 240.753906 " fill-opacity="1" fill-rule="nonzero"/></g></g></g></g><path fill="#31b099" d="M 237.710938 253.046875 C 237.710938 253.046875 231.257812 304.753906 231.257812 304.753906 C 231.257812 304.753906 85.335938 304.753906 85.335938 304.753906 C 82.328125 259.601562 81.011719 218.480469 100.519531 205.203125 C 114.390625 193.128906 145.789062 191.691406 166.175781 188.457031 C 181.117188 190.203125 208.195312 193.878906 220.371094 199.15625 C 234.546875 205.296875 238.949219 215.40625 239.585938 227.523438 C 240.003906 235.371094 238.832031 244.058594 237.710938 253.046875 Z M 237.710938 253.046875 " fill-opacity="1" fill-rule="nonzero"/><path fill="#31b099" d="M 252.183594 304.753906 C 252.183594 304.753906 185.585938 304.753906 185.585938 304.753906 C 185.585938 304.753906 239.585938 227.523438 239.585938 227.523438 C 239.585938 227.523438 240.234375 226.59375 240.234375 226.59375 C 240.234375 226.59375 252.183594 304.753906 252.183594 304.753906 Z M 252.183594 304.753906 " fill-opacity="1" fill-rule="nonzero"/><path fill="#8f411f" d="M 143.78125 169.355469 C 143.78125 169.355469 143.78125 195.617188 143.78125 195.617188 C 143.78125 198.96875 146.082031 201.863281 149.332031 202.675781 C 161.332031 205.660156 173.839844 202.566406 186.574219 196.796875 C 186.574219 196.796875 181.800781 159.125 181.800781 159.125 C 181.800781 159.125 143.78125 159.125 143.78125 159.125 C 143.78125 159.125 143.78125 169.355469 143.78125 169.355469 Z M 143.78125 169.355469 " fill-opacity="1" fill-rule="nonzero"/><path fill="#ffffff" d="M 152.199219 225.71875 C 152.199219 225.71875 164.484375 206.527344 164.484375 206.527344 C 164.484375 206.527344 179.457031 224.589844 179.457031 224.589844 C 179.457031 224.589844 193.863281 194.082031 193.863281 194.082031 C 193.863281 194.082031 184.117188 180.34375 184.117188 180.34375 C 184.117188 180.34375 163.726562 199.15625 163.726562 199.15625 C 163.726562 199.15625 143.863281 184.757812 143.863281 184.757812 C 143.863281 184.757812 134.042969 192.953125 134.042969 192.953125 C 134.042969 192.953125 152.199219 225.71875 152.199219 225.71875 Z M 152.199219 225.71875 " fill-opacity="1" fill-rule="nonzero"/><path fill="#8f411f" d="M 307.871094 242.988281 C 307.871094 242.988281 317.8125 221.050781 317.8125 221.050781 C 318.425781 219.902344 319.558594 219.109375 320.886719 218.898438 C 320.886719 218.898438 333.621094 216.863281 333.621094 216.863281 C 334.832031 216.671875 335.980469 216.253906 337.011719 215.632812 C 343.257812 211.875 349.984375 197.847656 351.003906 190.738281 C 351.171875 189.578125 351.21875 188.570312 351.082031 187.871094 C 350.390625 184.308594 347.695312 184.167969 346.785156 187.125 C 345.875 190.085938 340.359375 199.667969 340.359375 199.667969 C 340.359375 199.667969 342.847656 185.558594 336.917969 180.222656 C 336.917969 180.222656 324.429688 180.960938 322.601562 184.738281 C 321.816406 186.359375 322.410156 192.679688 322.816406 196.175781 C 322.957031 197.390625 321.960938 198.410156 320.695312 198.351562 C 316.632812 198.160156 308.515625 198.238281 304.875 201.570312 C 300.800781 205.300781 290.9375 222.949219 287.535156 229.152344 C 286.738281 230.609375 286.902344 232.414062 287.980469 233.746094 C 290.414062 236.75 297.394531 242.035156 307.871094 242.988281 Z M 307.871094 242.988281 " fill-opacity="1" fill-rule="nonzero"/><path fill="#31b099" d="M 324.808594 225.445312 C 324.808594 225.445312 293.742188 209.277344 293.742188 209.277344 C 255.339844 261.851562 223.746094 310.125 246.484375 324.082031 C 272.121094 344.597656 298.457031 285.824219 324.808594 225.445312 Z M 324.808594 225.445312 " fill-opacity="1" fill-rule="nonzero"/><path fill="#31b099" d="M 264.953125 327.070312 C 280.003906 319.726562 281.308594 304.484375 269.300781 281.601562 C 269.300781 281.601562 243.90625 223.453125 243.90625 223.453125 C 238.566406 211.6875 231.816406 203.53125 223.113281 200.398438 C 214.519531 197.304688 204.738281 200.117188 199.238281 207.410156 C 192.203125 216.734375 194.039062 229.996094 200.25 245.195312 C 200.25 245.195312 229.34375 307.902344 229.34375 307.902344 C 239.554688 323.847656 251.230469 331.332031 264.953125 327.070312 Z M 264.953125 327.070312 " fill-opacity="1" fill-rule="nonzero"/><path fill="#31b099" d="M 66.804688 327.070312 C 51.75 319.726562 50.445312 304.484375 62.457031 281.601562 C 62.457031 281.601562 87.851562 223.453125 87.851562 223.453125 C 93.191406 211.6875 99.9375 203.53125 108.644531 200.398438 C 117.238281 197.304688 127.019531 200.117188 132.519531 207.410156 C 139.554688 216.734375 137.71875 229.996094 131.507812 245.195312 C 131.507812 245.195312 102.414062 307.902344 102.414062 307.902344 C 92.203125 323.847656 80.523438 331.332031 66.804688 327.070312 Z M 66.804688 327.070312 " fill-opacity="1" fill-rule="nonzero"/><path fill="#0d222a" d="M 159.648438 98.113281 C 160.566406 95.394531 163.5 93.507812 166.351562 93.796875 C 163.78125 89.402344 164.851562 83.222656 168.746094 79.945312 C 172.644531 76.667969 178.917969 76.675781 182.804688 79.964844 C 183.449219 75.917969 186.457031 72.492188 190.121094 70.660156 C 193.382812 69.023438 197.425781 68.558594 200.640625 70.277344 C 203.859375 71.996094 205.757812 76.253906 204.152344 79.527344 C 207.152344 76.945312 210.902344 75.113281 214.855469 74.898438 C 218.808594 74.683594 222.9375 76.242188 225.355469 79.375 C 227.777344 82.507812 228.15625 87.226562 225.855469 90.445312 C 230.199219 87.789062 236.558594 89.289062 239.261719 93.605469 C 241.964844 97.921875 240.539062 104.296875 236.253906 107.050781 C 238.15625 106.789062 240.066406 107.898438 241.160156 109.476562 C 242.253906 111.058594 242.636719 113.03125 242.695312 114.949219 C 242.929688 122.933594 237.332031 130.734375 229.691406 133.070312 C 232.761719 140.035156 229.777344 149.09375 223.167969 152.871094 C 216.558594 156.652344 207.242188 154.625 202.792969 148.445312 C 199.875 152.339844 194.386719 154.074219 189.761719 152.570312 C 185.136719 151.0625 181.722656 146.425781 181.660156 141.5625 C 177.699219 143.175781 172.800781 142.132812 169.84375 139.046875 C 166.882812 135.960938 166.046875 131.027344 167.824219 127.136719 C 164.042969 126.390625 160.140625 124.855469 157.984375 121.660156 C 155.832031 118.46875 156.359375 113.316406 159.828125 111.640625 C 159.09375 111.996094 158.96875 108.875 159.03125 108.582031 C 159.320312 107.308594 160.867188 106.714844 161.121094 105.683594 C 161.675781 103.445312 158.617188 101.160156 159.648438 98.113281 Z M 159.648438 98.113281 " fill-opacity="1" fill-rule="nonzero"/><path fill="#8f411f" d="M 124.660156 118.214844 C 124.660156 118.214844 123.328125 140.589844 123.328125 140.589844 C 123.328125 140.589844 117.890625 140.265625 117.890625 140.265625 C 113.992188 140.140625 112.527344 143.796875 115.5 147.609375 C 115.5 147.609375 120.300781 154.402344 120.300781 154.402344 C 120.441406 162.480469 121.371094 169.386719 123.761719 174.113281 C 125.398438 177.34375 128.589844 179.496094 132.179688 179.960938 C 146.085938 181.773438 159.121094 177.042969 171.566406 167.867188 C 176.964844 150.144531 175.339844 132.808594 166.851562 115.847656 C 166.851562 115.847656 124.660156 118.214844 124.660156 118.214844 Z M 124.660156 118.214844 " fill-opacity="1" fill-rule="nonzero"/><path fill="#0d222a" d="M 124.660156 118.214844 C 126.679688 119.929688 132.109375 121.542969 142.6875 120.402344 C 139.296875 134.242188 146.925781 141.871094 154.824219 142.953125 C 156.960938 139.496094 159.1875 137.0625 161.53125 135.84375 C 166.285156 133.378906 171.933594 137.199219 171.75 142.554688 C 171.453125 151.25 166.925781 155.863281 157.019531 155.285156 C 160.316406 159.988281 163.808594 164.261719 167.921875 167.207031 C 174.089844 171.621094 182.402344 171.238281 188.339844 166.523438 C 206.75 151.890625 213.503906 130.460938 205.402344 112.476562 C 200.847656 102.367188 191.953125 94.90625 181.398438 91.5 C 153.777344 82.59375 127.472656 91.492188 124.660156 118.214844 Z M 124.660156 118.214844 " fill-opacity="1" fill-rule="nonzero"/><path fill="#0d222a" d="M 134.75 138.53125 C 134.628906 140.605469 133.703125 142.238281 132.691406 142.175781 C 131.675781 142.117188 130.953125 140.386719 131.074219 138.3125 C 131.199219 136.238281 132.121094 134.605469 133.136719 134.664062 C 134.152344 134.726562 134.875 136.457031 134.75 138.53125 Z M 134.75 138.53125 " fill-opacity="1" fill-rule="nonzero"/><path fill="#8f411f" d="M 155.316406 286.277344 C 155.316406 286.277344 179.339844 284.539062 179.339844 284.539062 C 180.628906 284.363281 181.765625 283.574219 182.425781 282.398438 C 182.425781 282.398438 188.738281 271.15625 188.738281 271.15625 C 189.339844 270.089844 190.128906 269.152344 191.066406 268.402344 C 196.757812 263.839844 212.242188 262.386719 219.265625 263.890625 C 220.414062 264.132812 221.371094 264.4375 221.980469 264.808594 C 225.085938 266.691406 224.285156 269.269531 221.195312 269.097656 C 218.101562 268.925781 207.203125 270.785156 207.203125 270.785156 C 207.203125 270.785156 221.300781 273.335938 224.257812 280.742188 C 224.257812 280.742188 219.242188 292.203125 215.0625 292.613281 C 213.269531 292.785156 207.546875 290.042969 204.410156 288.453125 C 203.320312 287.898438 202.015625 288.480469 201.636719 289.6875 C 200.410156 293.566406 197.523438 301.15625 193.136719 303.417969 C 188.230469 305.953125 168.261719 309.09375 161.261719 310.140625 C 159.621094 310.386719 157.980469 309.609375 157.105469 308.132812 C 155.128906 304.8125 152.585938 296.429688 155.316406 286.277344 Z M 155.316406 286.277344 " fill-opacity="1" fill-rule="nonzero"/><path fill="#31b099" d="M 177.636719 276.453125 C 177.636719 276.453125 182.054688 311.195312 182.054688 311.195312 C 119.441406 329.03125 63.214844 341.96875 57.988281 315.800781 C 47.617188 284.652344 111.871094 280.28125 177.636719 276.453125 Z M 177.636719 276.453125 " fill-opacity="1" fill-rule="nonzero"/><path fill="#31b099" d="M 262.09375 171.382812 C 261.957031 170.40625 262.054688 124.574219 262.085938 111.144531 C 262.09375 107.488281 262.851562 103.855469 264.484375 100.582031 C 267.671875 94.1875 273.28125 90.097656 282.796875 89.714844 C 282.796875 89.714844 342.082031 89.714844 342.082031 89.714844 C 352.011719 89.714844 360.058594 97.765625 360.058594 107.691406 C 360.058594 107.691406 360.058594 133.8125 360.058594 133.8125 C 360.058594 136.40625 359.707031 139 358.902344 141.464844 C 356.75 148.039062 352.457031 151.957031 346.65625 154 C 343.84375 154.988281 340.863281 155.40625 337.882812 155.40625 C 337.882812 155.40625 279.046875 155.40625 279.046875 155.40625 C 279.046875 155.40625 262.09375 171.382812 262.09375 171.382812 Z M 262.09375 171.382812 " fill-opacity="1" fill-rule="nonzero"/><path fill="#ffffff" d="M 344.292969 121.292969 C 344.082031 118.234375 341.625 115.746094 338.570312 115.5 C 337.441406 115.410156 336.371094 115.621094 335.425781 116.058594 C 334.3125 116.574219 333.113281 116.878906 331.886719 116.878906 C 331.886719 116.878906 331.800781 116.878906 331.800781 116.878906 C 331.800781 116.878906 331.800781 104.359375 331.800781 104.359375 C 331.800781 104.359375 319.433594 104.359375 319.433594 104.359375 C 319.433594 104.359375 319.433594 105.117188 319.433594 105.117188 C 319.433594 106.074219 319.679688 107.011719 320.101562 107.871094 C 320.980469 109.664062 321.027344 111.941406 319.722656 114.199219 C 319.320312 114.902344 318.726562 115.484375 318.023438 115.882812 C 313.171875 118.636719 308.230469 115.199219 308.230469 110.613281 C 308.230469 109.585938 308.476562 108.617188 308.914062 107.761719 C 309.402344 106.8125 309.628906 105.746094 309.628906 104.675781 C 309.628906 104.675781 309.628906 104.359375 309.628906 104.359375 C 309.628906 104.359375 297.164062 104.359375 297.164062 104.359375 C 297.164062 104.359375 297.164062 116.824219 297.164062 116.824219 C 297.164062 116.824219 297.105469 116.824219 297.105469 116.824219 C 295.882812 116.824219 294.683594 116.519531 293.570312 116.003906 C 291.796875 115.179688 289.570312 115.160156 287.363281 116.429688 C 286.65625 116.835938 286.074219 117.429688 285.671875 118.136719 C 282.917969 122.988281 286.351562 127.929688 290.941406 127.929688 C 291.839844 127.929688 292.691406 127.742188 293.464844 127.398438 C 294.558594 126.914062 295.734375 126.628906 296.933594 126.628906 C 296.933594 126.628906 297.164062 126.628906 297.164062 126.628906 C 297.164062 126.628906 297.164062 138.996094 297.164062 138.996094 C 297.164062 138.996094 309.625 138.996094 309.625 138.996094 C 309.625 138.996094 309.625 138.90625 309.625 138.90625 C 309.625 137.679688 309.320312 136.484375 308.804688 135.371094 C 308.367188 134.425781 308.15625 133.355469 308.246094 132.222656 C 308.492188 129.171875 310.980469 126.714844 314.039062 126.503906 C 317.691406 126.253906 320.734375 129.140625 320.734375 132.742188 C 320.734375 133.652344 320.539062 134.519531 320.1875 135.296875 C 319.707031 136.371094 319.433594 137.523438 319.433594 138.695312 C 319.433594 138.695312 319.433594 138.996094 319.433594 138.996094 C 319.433594 138.996094 331.800781 138.996094 331.800781 138.996094 C 331.800781 138.996094 331.800781 126.6875 331.800781 126.6875 C 331.800781 126.6875 332.097656 126.6875 332.097656 126.6875 C 333.273438 126.6875 334.425781 126.960938 335.496094 127.441406 C 336.277344 127.792969 337.140625 127.988281 338.054688 127.988281 C 341.652344 127.988281 344.542969 124.945312 344.292969 121.292969 Z M 344.292969 121.292969 " fill-opacity="1" fill-rule="nonzero"/></svg>