<svg xmlns="http://www.w3.org/2000/svg" xmlns:xlink="http://www.w3.org/1999/xlink" width="500" zoomAndPan="magnify" viewBox="0 0 375 374.999991" height="500" preserveAspectRatio="xMidYMid meet" version="1.0"><defs><g/><clipPath id="3e66818754"><path d="M 52.164062 52.164062 L 322.835938 52.164062 L 322.835938 322.835938 L 52.164062 322.835938 Z M 52.164062 52.164062 " clip-rule="nonzero"/></clipPath><clipPath id="67a2863ad1"><path d="M 187.5 52.164062 C 112.753906 52.164062 52.164062 112.753906 52.164062 187.5 C 52.164062 262.246094 112.753906 322.835938 187.5 322.835938 C 262.246094 322.835938 322.835938 262.246094 322.835938 187.5 C 322.835938 112.753906 262.246094 52.164062 187.5 52.164062 Z M 187.5 52.164062 " clip-rule="nonzero"/></clipPath><clipPath id="13c0f7eb99"><path d="M 0.164062 0.164062 L 270.835938 0.164062 L 270.835938 270.835938 L 0.164062 270.835938 Z M 0.164062 0.164062 " clip-rule="nonzero"/></clipPath><clipPath id="11283d8b2e"><path d="M 135.5 0.164062 C 60.753906 0.164062 0.164062 60.753906 0.164062 135.5 C 0.164062 210.246094 60.753906 270.835938 135.5 270.835938 C 210.246094 270.835938 270.835938 210.246094 270.835938 135.5 C 270.835938 60.753906 210.246094 0.164062 135.5 0.164062 Z M 135.5 0.164062 " clip-rule="nonzero"/></clipPath><clipPath id="4dd536e88a"><rect x="0" width="271" y="0" height="271"/></clipPath><clipPath id="2cc7e5a496"><rect x="0" width="212" y="0" height="185"/></clipPath></defs><g clip-path="url(#3e66818754)"><g clip-path="url(#67a2863ad1)"><g transform="matrix(1, 0, 0, 1, 52, 52)"><g clip-path="url(#4dd536e88a)"><g clip-path="url(#13c0f7eb99)"><g clip-path="url(#11283d8b2e)"><path fill="#247f82" d="M 0.164062 0.164062 L 270.835938 0.164062 L 270.835938 270.835938 L 0.164062 270.835938 Z M 0.164062 0.164062 " fill-opacity="1" fill-rule="nonzero"/></g></g></g></g></g></g><g transform="matrix(1, 0, 0, 1, 82, 110)"><g clip-path="url(#2cc7e5a496)"><g fill="#1c2634" fill-opacity="1"><g transform="translate(16.578457, 138.514404)"><g><path d="M -12.550781 -60.882812 C -12.550781 -75.203125 -10.742188 -87.632812 -7.125 -98.167969 C -3.179688 -109.671875 2.621094 -118.671875 10.273438 -125.167969 C 18.59375 -132.230469 28.339844 -135.765625 39.519531 -135.765625 C 48.265625 -135.765625 56.152344 -133.527344 63.183594 -129.050781 C 69.554688 -124.996094 75.003906 -119.609375 79.53125 -112.890625 C 83.707031 -106.695312 87.042969 -99.722656 89.539062 -91.972656 C 91.949219 -84.496094 93.523438 -76.703125 94.261719 -68.589844 C 95.117188 -59.269531 94.808594 -50.054688 93.332031 -40.945312 C 91.8125 -31.570312 89.058594 -22.957031 85.070312 -15.113281 C 80.707031 -6.523438 74.855469 0.398438 67.515625 5.648438 C 59.589844 11.320312 50.257812 14.15625 39.519531 14.15625 C 30.636719 14.15625 22.625 11.414062 15.476562 5.929688 C 9.367188 1.242188 4.15625 -4.867188 -0.15625 -12.402344 C -4.175781 -19.417969 -7.253906 -27.171875 -9.390625 -35.660156 C -11.5 -44.023438 -12.550781 -52.429688 -12.550781 -60.882812 Z M 15.765625 -60.882812 C 15.765625 -54.769531 16.53125 -48.667969 18.066406 -42.574219 C 19.570312 -36.605469 21.6875 -31.238281 24.414062 -26.472656 C 26.847656 -22.226562 29.613281 -18.914062 32.714844 -16.53125 C 34.777344 -14.949219 37.046875 -14.15625 39.519531 -14.15625 C 44.199219 -14.15625 48.039062 -15.230469 51.039062 -17.375 C 54.621094 -19.941406 57.554688 -23.464844 59.828125 -27.941406 C 62.480469 -33.160156 64.332031 -39.007812 65.382812 -45.480469 C 66.476562 -52.222656 66.703125 -59.070312 66.0625 -66.027344 C 65.511719 -72.050781 64.355469 -77.804688 62.589844 -83.285156 C 60.910156 -88.496094 58.730469 -93.089844 56.050781 -97.070312 C 53.722656 -100.523438 51.03125 -103.222656 47.980469 -105.164062 C 45.585938 -106.6875 42.765625 -107.449219 39.519531 -107.449219 C 35.273438 -107.449219 31.632812 -106.160156 28.601562 -103.585938 C 24.902344 -100.445312 21.921875 -95.574219 19.65625 -88.976562 C 17.0625 -81.417969 15.765625 -72.054688 15.765625 -60.882812 Z M 39.519531 -87.6875 C 41.195312 -87.6875 42.734375 -88.125 44.136719 -88.996094 C 44.945312 -89.5 45.535156 -90.023438 45.90625 -90.570312 C 45.320312 -89.710938 44.78125 -88.347656 44.285156 -86.484375 C 43.65625 -84.121094 43.304688 -81.535156 43.230469 -78.726562 C 43.15625 -76.042969 43.378906 -73.578125 43.90625 -71.34375 C 44.167969 -70.214844 44.484375 -69.441406 44.855469 -69.019531 C 44.429688 -69.503906 43.882812 -69.894531 43.210938 -70.1875 C 42.664062 -70.425781 42.183594 -70.542969 41.765625 -70.542969 C 40.90625 -70.542969 40.011719 -70.308594 39.089844 -69.839844 C 38.082031 -69.332031 37.289062 -68.667969 36.714844 -67.855469 C 36.945312 -68.179688 37.140625 -68.921875 37.304688 -70.082031 C 37.621094 -72.339844 37.632812 -74.839844 37.332031 -77.574219 C 37.011719 -80.503906 36.441406 -83.214844 35.625 -85.707031 C 34.964844 -87.710938 34.277344 -89.207031 33.554688 -90.195312 C 33.871094 -89.761719 34.386719 -89.328125 35.097656 -88.898438 C 36.4375 -88.09375 37.910156 -87.6875 39.519531 -87.6875 Z M 39.519531 -116.003906 C 43.160156 -116.003906 46.5625 -115.050781 49.71875 -113.148438 C 52.253906 -111.621094 54.484375 -109.542969 56.40625 -106.914062 C 58.894531 -103.511719 60.9375 -99.382812 62.527344 -94.535156 C 63.960938 -90.171875 64.941406 -85.546875 65.480469 -80.660156 C 66.035156 -75.574219 65.992188 -70.738281 65.34375 -66.140625 C 64.542969 -60.445312 62.707031 -55.566406 59.832031 -51.503906 C 57.703125 -48.492188 55.050781 -46.183594 51.875 -44.578125 C 48.78125 -43.011719 45.410156 -42.226562 41.765625 -42.226562 C 38.246094 -42.226562 34.953125 -42.894531 31.890625 -44.230469 C 28.703125 -45.621094 25.929688 -47.65625 23.578125 -50.335938 C 20.09375 -54.308594 17.679688 -59.15625 16.335938 -64.882812 C 15.253906 -69.5 14.785156 -74.371094 14.921875 -79.503906 C 15.0625 -84.511719 15.726562 -89.265625 16.917969 -93.753906 C 18.246094 -98.746094 20.113281 -103.007812 22.523438 -106.539062 C 24.398438 -109.28125 26.621094 -111.449219 29.195312 -113.050781 C 32.367188 -115.019531 35.808594 -116.003906 39.519531 -116.003906 Z M 39.519531 -116.003906 "/></g></g></g><g fill="#1c2634" fill-opacity="1"><g transform="translate(112.150821, 138.514404)"><g><path d="M -12.550781 -60.882812 C -12.550781 -75.203125 -10.742188 -87.632812 -7.125 -98.167969 C -3.179688 -109.671875 2.621094 -118.671875 10.273438 -125.167969 C 18.59375 -132.230469 28.339844 -135.765625 39.519531 -135.765625 C 48.265625 -135.765625 56.152344 -133.527344 63.183594 -129.050781 C 69.554688 -124.996094 75.003906 -119.609375 79.53125 -112.890625 C 83.707031 -106.695312 87.042969 -99.722656 89.539062 -91.972656 C 91.949219 -84.496094 93.523438 -76.703125 94.261719 -68.589844 C 95.117188 -59.269531 94.808594 -50.054688 93.332031 -40.945312 C 91.8125 -31.570312 89.058594 -22.957031 85.070312 -15.113281 C 80.707031 -6.523438 74.855469 0.398438 67.515625 5.648438 C 59.589844 11.320312 50.257812 14.15625 39.519531 14.15625 C 30.636719 14.15625 22.625 11.414062 15.476562 5.929688 C 9.367188 1.242188 4.15625 -4.867188 -0.15625 -12.402344 C -4.175781 -19.417969 -7.253906 -27.171875 -9.390625 -35.660156 C -11.5 -44.023438 -12.550781 -52.429688 -12.550781 -60.882812 Z M 15.765625 -60.882812 C 15.765625 -54.769531 16.53125 -48.667969 18.066406 -42.574219 C 19.570312 -36.605469 21.6875 -31.238281 24.414062 -26.472656 C 26.847656 -22.226562 29.613281 -18.914062 32.714844 -16.53125 C 34.777344 -14.949219 37.046875 -14.15625 39.519531 -14.15625 C 44.199219 -14.15625 48.039062 -15.230469 51.039062 -17.375 C 54.621094 -19.941406 57.554688 -23.464844 59.828125 -27.941406 C 62.480469 -33.160156 64.332031 -39.007812 65.382812 -45.480469 C 66.476562 -52.222656 66.703125 -59.070312 66.0625 -66.027344 C 65.511719 -72.050781 64.355469 -77.804688 62.589844 -83.285156 C 60.910156 -88.496094 58.730469 -93.089844 56.050781 -97.070312 C 53.722656 -100.523438 51.03125 -103.222656 47.980469 -105.164062 C 45.585938 -106.6875 42.765625 -107.449219 39.519531 -107.449219 C 35.273438 -107.449219 31.632812 -106.160156 28.601562 -103.585938 C 24.902344 -100.445312 21.921875 -95.574219 19.65625 -88.976562 C 17.0625 -81.417969 15.765625 -72.054688 15.765625 -60.882812 Z M 39.519531 -87.6875 C 41.195312 -87.6875 42.734375 -88.125 44.136719 -88.996094 C 44.945312 -89.5 45.535156 -90.023438 45.90625 -90.570312 C 45.320312 -89.710938 44.78125 -88.347656 44.285156 -86.484375 C 43.65625 -84.121094 43.304688 -81.535156 43.230469 -78.726562 C 43.15625 -76.042969 43.378906 -73.578125 43.90625 -71.34375 C 44.167969 -70.214844 44.484375 -69.441406 44.855469 -69.019531 C 44.429688 -69.503906 43.882812 -69.894531 43.210938 -70.1875 C 42.664062 -70.425781 42.183594 -70.542969 41.765625 -70.542969 C 40.90625 -70.542969 40.011719 -70.308594 39.089844 -69.839844 C 38.082031 -69.332031 37.289062 -68.667969 36.714844 -67.855469 C 36.945312 -68.179688 37.140625 -68.921875 37.304688 -70.082031 C 37.621094 -72.339844 37.632812 -74.839844 37.332031 -77.574219 C 37.011719 -80.503906 36.441406 -83.214844 35.625 -85.707031 C 34.964844 -87.710938 34.277344 -89.207031 33.554688 -90.195312 C 33.871094 -89.761719 34.386719 -89.328125 35.097656 -88.898438 C 36.4375 -88.09375 37.910156 -87.6875 39.519531 -87.6875 Z M 39.519531 -116.003906 C 43.160156 -116.003906 46.5625 -115.050781 49.71875 -113.148438 C 52.253906 -111.621094 54.484375 -109.542969 56.40625 -106.914062 C 58.894531 -103.511719 60.9375 -99.382812 62.527344 -94.535156 C 63.960938 -90.171875 64.941406 -85.546875 65.480469 -80.660156 C 66.035156 -75.574219 65.992188 -70.738281 65.34375 -66.140625 C 64.542969 -60.445312 62.707031 -55.566406 59.832031 -51.503906 C 57.703125 -48.492188 55.050781 -46.183594 51.875 -44.578125 C 48.78125 -43.011719 45.410156 -42.226562 41.765625 -42.226562 C 38.246094 -42.226562 34.953125 -42.894531 31.890625 -44.230469 C 28.703125 -45.621094 25.929688 -47.65625 23.578125 -50.335938 C 20.09375 -54.308594 17.679688 -59.15625 16.335938 -64.882812 C 15.253906 -69.5 14.785156 -74.371094 14.921875 -79.503906 C 15.0625 -84.511719 15.726562 -89.265625 16.917969 -93.753906 C 18.246094 -98.746094 20.113281 -103.007812 22.523438 -106.539062 C 24.398438 -109.28125 26.621094 -111.449219 29.195312 -113.050781 C 32.367188 -115.019531 35.808594 -116.003906 39.519531 -116.003906 Z M 39.519531 -116.003906 "/></g></g></g><g fill="#ffffff" fill-opacity="1"><g transform="translate(16.578457, 138.514404)"><g><path d="M 1.609375 -60.890625 C 1.609375 -73.628906 3.160156 -84.519531 6.265625 -93.5625 C 9.367188 -102.613281 13.757812 -109.550781 19.4375 -114.375 C 25.113281 -119.195312 31.804688 -121.609375 39.515625 -121.609375 C 45.515625 -121.609375 50.867188 -120.109375 55.578125 -117.109375 C 60.296875 -114.109375 64.367188 -110.0625 67.796875 -104.96875 C 71.222656 -99.882812 73.976562 -94.101562 76.0625 -87.625 C 78.15625 -81.144531 79.519531 -74.375 80.15625 -67.3125 C 80.90625 -59.164062 80.632812 -51.128906 79.34375 -43.203125 C 78.0625 -35.285156 75.757812 -28.0625 72.4375 -21.53125 C 69.125 -15 64.734375 -9.773438 59.265625 -5.859375 C 53.804688 -1.953125 47.222656 0 39.515625 0 C 33.835938 0 28.695312 -1.765625 24.09375 -5.296875 C 19.488281 -8.835938 15.5 -13.550781 12.125 -19.4375 C 8.75 -25.320312 6.148438 -31.878906 4.328125 -39.109375 C 2.515625 -46.335938 1.609375 -53.597656 1.609375 -60.890625 Z M 39.515625 -101.84375 C 37.484375 -101.84375 35.71875 -100.742188 34.21875 -98.546875 C 32.71875 -96.359375 31.507812 -93.550781 30.59375 -90.125 C 29.6875 -86.695312 29.179688 -83.023438 29.078125 -79.109375 C 28.972656 -75.203125 29.320312 -71.535156 30.125 -68.109375 C 30.925781 -64.679688 32.289062 -61.867188 34.21875 -59.671875 C 36.144531 -57.484375 38.660156 -56.390625 41.765625 -56.390625 C 44.546875 -56.390625 46.710938 -57.484375 48.265625 -59.671875 C 49.828125 -61.867188 50.847656 -64.679688 51.328125 -68.109375 C 51.804688 -71.535156 51.832031 -75.203125 51.40625 -79.109375 C 50.976562 -83.023438 50.203125 -86.695312 49.078125 -90.125 C 47.953125 -93.550781 46.582031 -96.359375 44.96875 -98.546875 C 43.363281 -100.742188 41.546875 -101.84375 39.515625 -101.84375 Z M 39.515625 -101.84375 "/></g></g></g><g fill="#ffffff" fill-opacity="1"><g transform="translate(112.150821, 138.514404)"><g><path d="M 1.609375 -60.890625 C 1.609375 -73.628906 3.160156 -84.519531 6.265625 -93.5625 C 9.367188 -102.613281 13.757812 -109.550781 19.4375 -114.375 C 25.113281 -119.195312 31.804688 -121.609375 39.515625 -121.609375 C 45.515625 -121.609375 50.867188 -120.109375 55.578125 -117.109375 C 60.296875 -114.109375 64.367188 -110.0625 67.796875 -104.96875 C 71.222656 -99.882812 73.976562 -94.101562 76.0625 -87.625 C 78.15625 -81.144531 79.519531 -74.375 80.15625 -67.3125 C 80.90625 -59.164062 80.632812 -51.128906 79.34375 -43.203125 C 78.0625 -35.285156 75.757812 -28.0625 72.4375 -21.53125 C 69.125 -15 64.734375 -9.773438 59.265625 -5.859375 C 53.804688 -1.953125 47.222656 0 39.515625 0 C 33.835938 0 28.695312 -1.765625 24.09375 -5.296875 C 19.488281 -8.835938 15.5 -13.550781 12.125 -19.4375 C 8.75 -25.320312 6.148438 -31.878906 4.328125 -39.109375 C 2.515625 -46.335938 1.609375 -53.597656 1.609375 -60.890625 Z M 39.515625 -101.84375 C 37.484375 -101.84375 35.71875 -100.742188 34.21875 -98.546875 C 32.71875 -96.359375 31.507812 -93.550781 30.59375 -90.125 C 29.6875 -86.695312 29.179688 -83.023438 29.078125 -79.109375 C 28.972656 -75.203125 29.320312 -71.535156 30.125 -68.109375 C 30.925781 -64.679688 32.289062 -61.867188 34.21875 -59.671875 C 36.144531 -57.484375 38.660156 -56.390625 41.765625 -56.390625 C 44.546875 -56.390625 46.710938 -57.484375 48.265625 -59.671875 C 49.828125 -61.867188 50.847656 -64.679688 51.328125 -68.109375 C 51.804688 -71.535156 51.832031 -75.203125 51.40625 -79.109375 C 50.976562 -83.023438 50.203125 -86.695312 49.078125 -90.125 C 47.953125 -93.550781 46.582031 -96.359375 44.96875 -98.546875 C 43.363281 -100.742188 41.546875 -101.84375 39.515625 -101.84375 Z M 39.515625 -101.84375 "/></g></g></g></g></g></svg>