<svg xmlns="http://www.w3.org/2000/svg" xmlns:xlink="http://www.w3.org/1999/xlink" width="500" zoomAndPan="magnify" viewBox="0 0 375 374.999991" height="500" preserveAspectRatio="xMidYMid meet" version="1.0"><defs><filter x="0%" y="0%" width="100%" height="100%" id="62dde3a171"><feColorMatrix values="0 0 0 0 1 0 0 0 0 1 0 0 0 0 1 0 0 0 1 0" color-interpolation-filters="sRGB"/></filter><mask id="d62ea50f8b"><g filter="url(#62dde3a171)"><rect x="-37.5" width="450" fill="#000000" y="-37.499999" height="449.999989" fill-opacity="0.05"/></g></mask><clipPath id="850a164eda"><path d="M 1 1 L 281 1 L 281 241.679688 L 1 241.679688 Z M 1 1 " clip-rule="nonzero"/></clipPath><clipPath id="6720694430"><rect x="0" width="281" y="0" height="242"/></clipPath></defs><path fill="#ffffff" d="M 359.566406 309.296875 C 359.566406 309.296875 66.472656 309.296875 66.472656 309.296875 C 61.335938 309.296875 57.167969 305.128906 57.167969 299.992188 C 57.167969 299.992188 57.167969 37.964844 57.167969 37.964844 C 57.167969 32.828125 61.335938 28.664062 66.472656 28.664062 C 66.472656 28.664062 359.566406 28.664062 359.566406 28.664062 C 364.703125 28.664062 368.871094 32.828125 368.871094 37.964844 C 368.871094 37.964844 368.871094 299.992188 368.871094 299.992188 C 368.871094 305.128906 364.703125 309.296875 359.566406 309.296875 Z M 359.566406 309.296875 " fill-opacity="1" fill-rule="nonzero"/><path fill="#31b099" d="M 319.996094 44.433594 C 319.996094 47.164062 317.78125 49.378906 315.046875 49.378906 C 312.316406 49.378906 310.101562 47.164062 310.101562 44.433594 C 310.101562 41.699219 312.316406 39.484375 315.046875 39.484375 C 317.78125 39.484375 319.996094 41.699219 319.996094 44.433594 Z M 319.996094 44.433594 " fill-opacity="1" fill-rule="nonzero"/><path fill="#31b099" d="M 338.183594 44.433594 C 338.183594 47.164062 335.96875 49.378906 333.234375 49.378906 C 330.503906 49.378906 328.289062 47.164062 328.289062 44.433594 C 328.289062 41.699219 330.503906 39.484375 333.234375 39.484375 C 335.96875 39.484375 338.183594 41.699219 338.183594 44.433594 Z M 338.183594 44.433594 " fill-opacity="1" fill-rule="nonzero"/><path fill="#31b099" d="M 356.371094 44.433594 C 356.371094 47.164062 354.15625 49.378906 351.425781 49.378906 C 348.691406 49.378906 346.480469 47.164062 346.480469 44.433594 C 346.480469 41.699219 348.691406 39.484375 351.425781 39.484375 C 354.15625 39.484375 356.371094 41.699219 356.371094 44.433594 Z M 356.371094 44.433594 " fill-opacity="1" fill-rule="nonzero"/><g mask="url(#d62ea50f8b)"><g transform="matrix(1, 0, 0, 1, 73, 54)"><g clip-path="url(#6720694430)"><g clip-path="url(#850a164eda)"><path fill="#0d222a" d="M 280.855469 241.316406 C 280.855469 241.316406 1.117188 241.316406 1.117188 241.316406 C 1.117188 241.316406 1.117188 1.328125 1.117188 1.328125 C 1.117188 1.328125 280.855469 1.328125 280.855469 1.328125 C 280.855469 1.328125 280.855469 241.316406 280.855469 241.316406 Z M 280.855469 241.316406 " fill-opacity="1" fill-rule="nonzero"/></g></g></g></g><path fill="#e7854d" d="M 125.691406 119.488281 C 125.691406 148.855469 101.882812 172.664062 72.515625 172.664062 C 43.144531 172.664062 19.335938 148.855469 19.335938 119.488281 C 19.335938 90.117188 43.144531 66.308594 72.515625 66.308594 C 101.882812 66.308594 125.691406 90.117188 125.691406 119.488281 Z M 125.691406 119.488281 " fill-opacity="1" fill-rule="nonzero"/><path fill="#ffffff" d="M 110.589844 119.488281 C 110.589844 140.515625 93.542969 157.566406 72.515625 157.566406 C 51.484375 157.566406 34.4375 140.515625 34.4375 119.488281 C 34.4375 98.457031 51.484375 81.410156 72.515625 81.410156 C 93.542969 81.410156 110.589844 98.457031 110.589844 119.488281 Z M 110.589844 119.488281 " fill-opacity="1" fill-rule="nonzero"/><path fill="#e7854d" d="M 98.832031 119.488281 C 98.832031 134.023438 87.050781 145.804688 72.515625 145.804688 C 57.980469 145.804688 46.195312 134.023438 46.195312 119.488281 C 46.195312 104.953125 57.980469 93.167969 72.515625 93.167969 C 87.050781 93.167969 98.832031 104.953125 98.832031 119.488281 Z M 98.832031 119.488281 " fill-opacity="1" fill-rule="nonzero"/><path fill="#ffffff" d="M 85.671875 119.488281 C 85.671875 126.753906 79.78125 132.648438 72.515625 132.648438 C 65.246094 132.648438 59.355469 126.753906 59.355469 119.488281 C 59.355469 112.21875 65.246094 106.328125 72.515625 106.328125 C 79.78125 106.328125 85.671875 112.21875 85.671875 119.488281 Z M 85.671875 119.488281 " fill-opacity="1" fill-rule="nonzero"/><path fill="#e7854d" d="M 119.96875 87.597656 C 119.96875 87.597656 119.96875 76.417969 119.96875 76.417969 C 119.96875 76.417969 139.167969 64.203125 139.167969 64.203125 C 139.167969 64.203125 137.800781 75.496094 137.800781 75.496094 C 137.800781 75.496094 148.964844 80.363281 148.964844 80.363281 C 148.964844 80.363281 129.96875 90.558594 129.96875 90.558594 C 129.96875 90.558594 119.96875 87.597656 119.96875 87.597656 Z M 119.96875 87.597656 " fill-opacity="1" fill-rule="nonzero"/><path stroke-linecap="round" transform="matrix(0.457263, 0, 0, 0.457263, 101.125039, 100.338164)" fill-opacity="1" fill="#ffffff" fill-rule="nonzero" stroke-linejoin="round" d="M -62.575221 41.879893 C -62.575221 41.879893 62.575048 -41.881088 62.575048 -41.881088 " stroke="#0d222a" stroke-width="13" stroke-opacity="1" stroke-miterlimit="4"/><path fill="#31b099" d="M 310.8125 248.289062 C 309.527344 251.222656 308.410156 254.292969 307.132812 257.328125 C 307.132812 257.328125 290.941406 295.316406 290.941406 295.316406 C 290.941406 295.316406 158.484375 295.316406 158.484375 295.316406 C 158.484375 295.316406 154.101562 234.410156 154.101562 234.410156 C 153.335938 223.710938 156.203125 212.964844 162.644531 204.390625 C 168.757812 196.246094 177.527344 190.496094 190.359375 188.417969 C 190.359375 188.417969 200.519531 187.925781 200.519531 187.925781 C 200.519531 187.925781 242.59375 185.871094 242.59375 185.871094 C 242.59375 185.871094 283.722656 196.652344 283.722656 196.652344 C 283.722656 196.652344 284.492188 196.855469 284.492188 196.855469 C 323.425781 204.035156 321.730469 223.378906 310.8125 248.289062 Z M 310.8125 248.289062 " fill-opacity="1" fill-rule="nonzero"/><path fill="#8f411f" d="M 242.59375 185.191406 C 242.59375 185.191406 286.085938 197.3125 286.085938 197.3125 C 263.457031 219.648438 210.5 207.878906 200.519531 187.921875 C 200.519531 187.921875 242.59375 185.191406 242.59375 185.191406 Z M 242.59375 185.191406 " fill-opacity="1" fill-rule="nonzero"/><path fill="#31b099" d="M 317.386719 220.578125 C 317.386719 220.578125 337.222656 294.246094 337.222656 294.246094 C 337.222656 294.246094 279.972656 295.34375 279.972656 295.34375 C 279.972656 295.34375 317.386719 220.578125 317.386719 220.578125 Z M 317.386719 220.578125 " fill-opacity="1" fill-rule="nonzero"/><path fill="#8f411f" d="M 260.320312 158.09375 C 260.320312 158.09375 260.320312 194.980469 260.320312 194.980469 C 260.320312 194.980469 220.683594 194.980469 220.683594 194.980469 C 220.683594 194.980469 220.683594 148.914062 220.683594 148.914062 C 220.683594 148.914062 260.320312 158.09375 260.320312 158.09375 Z M 260.320312 158.09375 " fill-opacity="1" fill-rule="nonzero"/><path fill="#8f411f" d="M 85.167969 234.019531 C 85.167969 234.019531 69.679688 216.398438 69.679688 216.398438 C 68.785156 215.503906 67.503906 215.085938 66.203125 215.265625 C 66.203125 215.265625 53.757812 216.984375 53.757812 216.984375 C 52.578125 217.148438 51.386719 217.085938 50.253906 216.800781 C 43.363281 215.070312 33.117188 203.90625 30.152344 197.574219 C 29.664062 196.539062 29.335938 195.613281 29.265625 194.925781 C 28.898438 191.40625 31.371094 190.511719 33.058594 193.011719 C 34.746094 195.507812 42.601562 202.875 42.601562 202.875 C 42.601562 202.875 36.28125 190.429688 40.292969 183.777344 C 40.292969 183.777344 52.136719 180.921875 54.914062 183.925781 C 56.105469 185.214844 57.34375 191.269531 57.957031 194.640625 C 58.171875 195.8125 59.390625 196.480469 60.550781 196.066406 C 64.28125 194.734375 71.867188 192.507812 76.207031 194.578125 C 81.0625 196.894531 95.257812 210.542969 100.1875 215.355469 C 101.347656 216.488281 101.707031 218.21875 101.078125 219.765625 C 99.664062 223.253906 94.65625 230.160156 85.167969 234.019531 Z M 85.167969 234.019531 " fill-opacity="1" fill-rule="nonzero"/><path fill="#31b099" d="M 69.246094 221.828125 C 69.246094 221.828125 98.78125 204.757812 98.78125 204.757812 C 138.410156 254.261719 171.234375 299.878906 149.703125 314.441406 C 125.640625 335.503906 97.484375 279.449219 69.246094 221.828125 Z M 69.246094 221.828125 " fill-opacity="1" fill-rule="nonzero"/><path fill="#31b099" d="M 134.441406 317.820312 C 119.78125 310.667969 118.507812 295.824219 130.207031 273.53125 C 130.207031 273.53125 154.941406 216.894531 154.941406 216.894531 C 160.144531 205.433594 166.714844 197.492188 175.195312 194.4375 C 183.566406 191.421875 193.09375 194.164062 198.449219 201.265625 C 205.304688 210.351562 203.515625 223.265625 197.464844 238.070312 C 197.464844 238.070312 169.125 299.152344 169.125 299.152344 C 159.179688 314.683594 147.804688 321.972656 134.441406 317.820312 Z M 134.441406 317.820312 " fill-opacity="1" fill-rule="nonzero"/><path fill="#8f411f" d="M 277.753906 111.339844 C 277.753906 111.339844 277.375 138.902344 277.375 138.902344 C 281.40625 141.902344 284.945312 145.019531 286.308594 148.644531 C 286.707031 149.703125 286.421875 150.902344 285.585938 151.664062 C 283.640625 153.4375 281.363281 154.25 279.007812 154.847656 C 275.988281 166.414062 271.902344 173.835938 266.640625 176.691406 C 265.605469 177.253906 264.441406 177.554688 263.261719 177.554688 C 250.113281 177.589844 237.558594 172.78125 225.472656 164.226562 C 225.472656 164.226562 250.054688 109.535156 250.054688 109.535156 C 250.054688 109.535156 277.753906 111.339844 277.753906 111.339844 Z M 277.753906 111.339844 " fill-opacity="1" fill-rule="nonzero"/><path fill="#ffffff" d="M 223.570312 148.316406 C 221.90625 155.460938 226.347656 162.601562 233.492188 164.261719 C 240.636719 165.925781 247.777344 161.484375 249.441406 154.339844 C 251.105469 147.195312 246.660156 140.054688 239.515625 138.390625 C 232.375 136.730469 225.234375 141.171875 223.570312 148.316406 Z M 223.570312 148.316406 " fill-opacity="1" fill-rule="nonzero"/><path fill="#8f411f" d="M 228.28125 149.414062 C 227.316406 153.5625 229.894531 157.707031 234.042969 158.675781 C 238.191406 159.640625 242.339844 157.058594 243.304688 152.910156 C 244.273438 148.761719 241.691406 144.617188 237.542969 143.648438 C 233.394531 142.683594 229.246094 145.265625 228.28125 149.414062 Z M 228.28125 149.414062 " fill-opacity="1" fill-rule="nonzero"/><path fill="#31b099" d="M 277.753906 111.339844 C 254.144531 123.65625 237.03125 141.335938 229.457031 166.894531 C 210.695312 160.082031 196.851562 147.929688 190.84375 127.269531 C 189.683594 123.273438 190.429688 118.976562 192.890625 115.625 C 203.96875 100.523438 219.46875 90.632812 236.386719 82.417969 C 237.878906 73.464844 242.261719 67.109375 253.09375 66.558594 C 267.304688 67.730469 270.546875 75.457031 269.542969 85.726562 C 273.5625 82.363281 277.5625 79.992188 281.417969 78.578125 C 295.90625 73.273438 310.347656 86.925781 306.277344 101.804688 C 303.304688 112.675781 293.644531 119.523438 277.59375 122.847656 C 277.59375 122.847656 277.753906 111.339844 277.753906 111.339844 Z M 277.753906 111.339844 " fill-opacity="1" fill-rule="nonzero"/><path fill="#0d222a" d="M 264.773438 136.464844 C 264.660156 138.378906 265.4375 139.984375 266.507812 140.050781 C 267.574219 140.113281 268.535156 138.609375 268.648438 136.695312 C 268.765625 134.777344 267.988281 133.171875 266.917969 133.109375 C 265.847656 133.042969 264.890625 134.546875 264.773438 136.464844 Z M 264.773438 136.464844 " fill-opacity="1" fill-rule="nonzero"/></svg>